<?xml version="1.0" standalone="no"?>
<!DOCTYPE svg PUBLIC "-//W3C//DTD SVG 20010904//EN"
 "http://www.w3.org/TR/2001/REC-SVG-20010904/DTD/svg10.dtd">
<svg version="1.0" xmlns="http://www.w3.org/2000/svg"
 width="1000.000000pt" height="1000.000000pt" viewBox="0 0 1000.000000 1000.000000"
 preserveAspectRatio="xMidYMid meet">
<metadata>
Created by potrace 1.11, written by Peter Selinger 2001-2013
</metadata>
<g transform="translate(0.000000,1000.000000) scale(0.100000,-0.100000)"
fill="#000000" stroke="none">
<path d="M2570 7374 c-19 -2 -78 -9 -130 -14 -679 -74 -1217 -439 -1384 -942
-59 -176 -79 -382 -57 -577 42 -359 192 -610 477 -801 256 -171 577 -293 1042
-395 631 -140 851 -217 978 -340 75 -74 99 -134 97 -243 -4 -218 -200 -367
-542 -413 -129 -17 -415 -6 -521 20 -209 53 -342 152 -473 351 -12 19 -49 53
-81 75 l-58 40 -478 3 -478 3 -31 -27 c-58 -48 -64 -73 -51 -187 58 -498 421
-882 1021 -1081 262 -87 493 -124 829 -133 879 -24 1545 244 1874 754 247 383
249 972 6 1334 -59 86 -189 215 -280 276 -232 155 -588 286 -1035 379 -675
141 -882 212 -1020 350 -71 70 -103 185 -85 299 26 162 126 259 327 317 68 20
101 23 263 23 214 0 291 -16 417 -85 106 -59 166 -120 217 -220 32 -64 53 -92
85 -115 l43 -30 504 -3 c555 -3 537 -5 570 59 34 66 3 248 -66 397 -227 485
-746 824 -1395 912 -81 11 -521 22 -585 14z"/>
<path d="M5533 7301 c-25 -12 -51 -34 -63 -53 -20 -33 -20 -45 -20 -2198 0
-2076 1 -2167 18 -2200 12 -22 35 -44 63 -58 l44 -22 457 2 c443 3 457 4 484
24 15 11 37 33 48 48 21 27 21 39 26 841 l5 813 625 -781 c344 -429 649 -806
677 -837 33 -36 72 -66 105 -81 l53 -24 537 -3 c584 -3 587 -3 623 52 27 40
31 110 9 143 -9 16 -393 511 -851 1101 -580 746 -831 1077 -825 1085 5 7 353
444 772 972 420 528 769 970 777 982 40 61 19 146 -47 191 l-34 23 -530 -3
-531 -3 -53 -24 c-42 -19 -67 -41 -115 -101 -34 -42 -316 -390 -627 -773
l-565 -696 -5 749 c-5 736 -5 749 -26 776 -11 15 -33 37 -48 48 -27 20 -40 21
-484 23 -434 3 -459 2 -499 -16z"/>
</g>
</svg>
