<svg width="625" height="430" viewBox="0 0 625 430" fill="none" xmlns="http://www.w3.org/2000/svg">
<path d="M615.72 0.403809H8.71973C6.40771 0.405914 4.191 1.32534 2.55618 2.96021C0.921366 4.59507 0.00203087 6.81179 0 9.12381V420.444C0.00202823 422.756 0.921366 424.973 2.55618 426.607C4.191 428.242 6.40771 429.162 8.71973 429.164H615.72C616.98 429.164 618.226 428.89 619.371 428.362C620.516 427.834 621.532 427.063 622.35 426.104C622.419 426.029 622.483 425.948 622.54 425.864C623.061 425.227 623.482 424.516 623.79 423.754C624.229 422.706 624.453 421.58 624.45 420.444V9.12387C624.447 6.81021 623.526 4.59219 621.889 2.95712C620.252 1.32206 618.033 0.403677 615.72 0.403809V0.403809ZM621.96 420.444C621.961 421.66 621.603 422.85 620.93 423.864C620.332 424.756 619.521 425.485 618.57 425.984C617.689 426.439 616.711 426.676 615.72 426.674H8.71973C7.06804 426.672 5.48457 426.015 4.31665 424.847C3.14873 423.679 2.49172 422.096 2.48972 420.444V9.12387C2.49171 7.47218 3.14873 5.88869 4.31665 4.72076C5.48457 3.55284 7.06803 2.8958 8.71973 2.8938H615.72C617.373 2.89359 618.959 3.5496 620.129 4.71771C621.299 5.88583 621.957 7.47056 621.96 9.12387V420.444Z" fill="#3F3D56"/>
<path d="M623.199 35.353H1.24219V37.8458H623.199V35.353Z" fill="#3F3D56"/>
<path d="M22.4316 26.5785C26.5618 26.5785 29.91 23.2302 29.91 19.1C29.91 14.9698 26.5618 11.6216 22.4316 11.6216C18.3013 11.6216 14.9531 14.9698 14.9531 19.1C14.9531 23.2302 18.3013 26.5785 22.4316 26.5785Z" fill="#3F3D56"/>
<path d="M43.9325 26.5785C48.0628 26.5785 51.411 23.2302 51.411 19.1C51.411 14.9698 48.0628 11.6216 43.9325 11.6216C39.8023 11.6216 36.4541 14.9698 36.4541 19.1C36.4541 23.2302 39.8023 26.5785 43.9325 26.5785Z" fill="#3F3D56"/>
<path d="M65.4325 26.5785C69.5628 26.5785 72.911 23.2302 72.911 19.1C72.911 14.9698 69.5628 11.6216 65.4325 11.6216C61.3023 11.6216 57.9541 14.9698 57.9541 19.1C57.9541 23.2302 61.3023 26.5785 65.4325 26.5785Z" fill="#3F3D56"/>
<path d="M276.977 247.273C269.498 242.405 265.778 231.09 267.61 220.742C269.443 210.394 276.345 201.481 284.618 197.637C288.643 195.824 293.055 195.038 297.458 195.351C301.862 195.664 306.118 197.066 309.846 199.431C317.433 204.07 328.163 206.611 331.766 215.893C334.535 223.026 331.023 237.511 327.297 244.439C324.076 250.427 317.955 253.166 312.205 254.356C305.844 255.654 299.278 255.57 292.952 254.11C286.625 252.65 280.686 249.849 275.536 245.896L276.977 247.273Z" fill="#2F2E41"/>
<path d="M273.076 302.234L267.096 312.544L266.306 313.904L265.156 315.904H247.526L248.716 313.904L251.796 308.714L258.976 296.594L267.106 299.844L273.076 302.234Z" fill="#FFB8B8"/>
<path d="M246.206 315.904L242.986 313.904L242.586 313.654L262.796 276.824C263.665 275.23 264.842 273.824 266.258 272.687C267.674 271.551 269.301 270.707 271.046 270.204C273.248 269.548 275.581 269.462 277.826 269.954C279.136 270.23 280.396 270.702 281.566 271.354C282.047 271.618 282.512 271.912 282.956 272.234C284.665 273.432 286.069 275.014 287.056 276.854C288.23 279.007 288.811 281.434 288.737 283.886C288.663 286.337 287.938 288.725 286.636 290.804L278.846 303.254L272.186 313.904L270.936 315.904H246.206V315.904Z" fill="#2F2E41"/>
<path d="M298.13 260.345C311.695 260.345 322.691 249.349 322.691 235.784C322.691 222.219 311.695 211.223 298.13 211.223C284.566 211.223 273.569 222.219 273.569 235.784C273.569 249.349 284.566 260.345 298.13 260.345Z" fill="#FFB8B8"/>
<path d="M322.786 315.904H267.576L267.826 315.194C267.686 314.764 267.556 314.334 267.436 313.904C267.306 313.454 267.196 312.994 267.096 312.544C266.199 308.358 266.202 304.028 267.106 299.844C270.156 284.864 282.326 272.694 282.326 272.694C282.536 272.534 282.746 272.384 282.956 272.234C284.766 270.908 286.731 269.807 288.806 268.954C297.846 265.204 307.326 266.714 313.696 268.654C315.914 269.325 318.083 270.15 320.186 271.124C320.926 271.474 321.326 271.694 321.326 271.694L321.956 290.904L322.716 313.904L322.786 315.904Z" fill="#0E6C8C"/>
<path d="M348.327 313.904L344.106 292.444L339.847 270.804C339.669 269.91 339.225 269.091 338.574 268.454C337.923 267.817 337.094 267.391 336.196 267.234L327.276 265.694L318.977 264.264C318.176 264.119 317.351 264.197 316.591 264.488C315.832 264.778 315.166 265.272 314.667 265.914C314.043 266.691 313.701 267.657 313.696 268.654C313.696 269.269 313.822 269.878 314.066 270.444C318.396 280.544 318.477 296.534 317.376 313.904C317.327 314.564 317.287 315.234 317.236 315.904H348.727L348.327 313.904Z" fill="#2F2E41"/>
<path d="M288.807 268.954C288.623 268.226 288.261 267.555 287.754 267.002C287.247 266.449 286.61 266.031 285.901 265.785C285.192 265.539 284.433 265.473 283.692 265.593C282.951 265.714 282.252 266.016 281.657 266.474L277.827 269.954L262.146 284.234C261.658 284.672 261.275 285.216 261.026 285.824C259.256 290.054 255.807 298.404 251.796 308.714C251.146 310.394 250.477 312.124 249.787 313.904C249.546 314.564 249.287 315.234 249.026 315.904H274.867C275.077 315.234 275.287 314.564 275.497 313.904C276.646 310.274 277.767 306.714 278.847 303.254C282.006 293.204 284.856 284.074 287.057 276.854C287.667 274.854 288.223 273.007 288.727 271.314C288.962 270.548 288.989 269.734 288.807 268.954V268.954Z" fill="#2F2E41"/>
<path d="M354.126 315.904H355.796L355.566 315.344L354.956 313.904L345.546 291.574L344.106 292.444L332.546 299.434L338.476 313.904L339.296 315.904H348.726H354.126Z" fill="#FFB8B8"/>
<path d="M344.586 273.864C343.313 270.531 340.8 267.82 337.574 266.297C334.348 264.775 330.658 264.558 327.276 265.694C326.844 265.837 326.42 266.004 326.006 266.194C323.637 267.251 321.618 268.961 320.186 271.124C319.602 271.987 319.122 272.917 318.756 273.894C318.107 275.589 317.8 277.396 317.854 279.21C317.907 281.024 318.319 282.81 319.066 284.464L321.956 290.904L332.296 313.904L333.196 315.904H354.126L355.566 315.344L359.306 313.904L359.826 313.704L344.586 273.864Z" fill="#2F2E41"/>
<path d="M317.421 207.575C318.277 207.832 319.194 207.799 320.029 207.482C320.865 207.165 321.573 206.581 322.043 205.821C322.488 205.047 322.75 204.18 322.809 203.289C322.868 202.397 322.721 201.504 322.381 200.678C321.684 199.029 320.586 197.58 319.186 196.463C317.596 195.025 315.661 194.023 313.568 193.555C312.523 193.33 311.442 193.333 310.397 193.562C309.353 193.792 308.37 194.243 307.516 194.886C306.676 195.55 306.054 196.449 305.729 197.468C305.404 198.488 305.39 199.581 305.69 200.608C306.326 202.452 308.048 203.688 309.768 204.608C313.182 206.43 316.945 207.5 320.807 207.746L317.421 207.575Z" fill="#2F2E41"/>
<path d="M322.198 235.051C318.249 235.595 318.756 233.585 317.175 229.926C315.593 226.267 313.476 221.924 309.508 221.553C306.255 221.25 303.576 223.85 300.941 225.781C296.244 229.222 289.915 230.906 284.471 228.842C279.027 226.777 275.244 220.289 277.31 214.846C277.953 213.343 278.898 211.988 280.086 210.864C281.274 209.741 282.68 208.874 284.217 208.316C287.3 207.22 290.574 206.766 293.839 206.98C301.101 207.212 308.223 209.035 314.703 212.321C319.175 214.593 323.529 217.844 325.225 222.565C326.922 227.285 328.038 233.919 323.187 235.196L322.198 235.051Z" fill="#2F2E41"/>
<path d="M315.402 194.591C313.45 191.194 315.061 186.532 318.255 184.262C321.449 181.992 325.732 181.77 329.543 182.68C333.312 183.629 336.765 185.553 339.556 188.258C342.346 190.963 344.377 194.354 345.444 198.091C347.061 204.033 346.099 210.414 347.469 216.417C348.199 219.617 349.576 222.634 351.516 225.281C353.456 227.929 355.917 230.152 358.749 231.812C361.58 233.473 364.721 234.536 367.979 234.937C371.237 235.338 374.542 235.067 377.691 234.142C381.793 232.938 385.962 230.009 386.365 225.753C386.79 230.641 385.675 235.539 383.178 239.761C380.681 243.984 376.925 247.32 372.438 249.302C367.152 251.507 361.257 251.65 355.532 251.504C351.802 251.408 347.986 251.183 344.545 249.74C342.163 248.654 340.023 247.104 338.248 245.18C336.474 243.256 335.101 240.997 334.211 238.536C332.459 233.589 331.986 228.28 332.836 223.101C333.399 219.073 334.519 215.124 334.833 211.069C335.146 207.013 334.552 202.683 332.052 199.475C329.551 196.266 324.776 194.628 321.221 196.605C319.793 197.4 318.64 198.698 317.088 199.21C315.536 199.723 313.336 198.822 313.477 197.193L315.402 194.591Z" fill="#2F2E41"/>
<path d="M483.006 315.904L483.196 313.904L488.836 255.224C490.685 253.776 492.671 252.513 494.766 251.454C506.376 245.604 517.576 248.404 523.636 250.824C525.242 251.452 526.794 252.212 528.276 253.094L531.576 313.904L531.686 315.904H483.006Z" fill="#0E6C8C"/>
<path d="M509.418 239.606C522.983 239.606 533.98 228.61 533.98 215.045C533.98 201.481 522.983 190.484 509.418 190.484C495.854 190.484 484.857 201.481 484.857 215.045C484.857 228.61 495.854 239.606 509.418 239.606Z" fill="#FFB8B8"/>
<path d="M529.347 230.022C531.172 228.097 532.384 225.674 532.828 223.059C533.273 220.444 532.929 217.756 531.842 215.337C530.754 212.918 528.971 210.877 526.72 209.474C524.47 208.071 521.852 207.369 519.201 207.457C515.805 207.571 512.605 208.961 509.363 209.981C504.451 211.652 499.21 212.124 494.078 211.357C488.916 210.556 484.257 207.805 481.062 203.672C478.023 199.495 477.076 193.702 479.222 189.004C481.701 183.581 487.49 180.593 492.936 178.165C495.132 177.065 497.478 176.294 499.898 175.877C501.111 175.676 502.352 175.727 503.544 176.027C504.736 176.328 505.853 176.871 506.825 177.623C508.355 178.939 509.252 180.918 510.918 182.059C512.792 183.343 515.228 183.309 517.488 183.535C522.581 184.045 527.398 186.093 531.298 189.407C535.199 192.722 537.998 197.145 539.323 202.088C540.648 207.032 540.437 212.262 538.717 217.083C536.998 221.904 533.851 226.086 529.696 229.075L529.347 230.022Z" fill="#2F2E41"/>
<path d="M498.426 261.614L494.767 251.454L494.538 250.82C494.43 250.52 494.255 250.248 494.026 250.026C493.797 249.803 493.52 249.636 493.217 249.536C492.914 249.436 492.592 249.406 492.276 249.449C491.96 249.492 491.657 249.607 491.392 249.784L487.236 252.554C487.236 252.554 460.586 252.554 458.446 268.544C458.416 268.794 458.376 269.074 458.347 269.374C458.345 269.387 458.342 269.401 458.336 269.414C458.066 270.464 453.037 289.904 448.716 313.904C448.597 314.564 448.477 315.234 448.356 315.904H506.267V315.903C508.151 291.795 507.097 269.379 498.426 261.614Z" fill="#2F2E41"/>
<path d="M567.506 313.904C564.347 289.284 559.827 269.374 559.827 269.374C559.787 269.074 559.746 268.794 559.716 268.544C557.586 252.554 530.936 252.554 530.936 252.554L526.784 249.785C526.518 249.608 526.215 249.494 525.899 249.451C525.582 249.408 525.26 249.438 524.957 249.538C524.654 249.638 524.377 249.806 524.148 250.028C523.919 250.251 523.744 250.523 523.636 250.824L519.746 261.614C511.076 269.379 510.022 291.794 511.906 315.903L511.907 315.904H567.756C567.676 315.234 567.586 314.564 567.506 313.904Z" fill="#2F2E41"/>
<path d="M98.4258 257.844L92.4858 313.904L92.2758 315.904H76.2061C76.396 315.254 76.5859 314.584 76.7861 313.904C81.3462 298.264 87.5561 275.434 86.8857 269.384C85.8359 259.944 93.186 256.794 93.186 256.794L93.646 256.884L98.4258 257.844Z" fill="#0E6C8C"/>
<path d="M124.342 240.54C137.907 240.54 148.903 229.544 148.903 215.979C148.903 202.414 137.907 191.418 124.342 191.418C110.778 191.418 99.7812 202.414 99.7812 215.979C99.7812 229.544 110.778 240.54 124.342 240.54Z" fill="#A0616A"/>
<path d="M156.136 304.004C154.897 306.287 153.883 308.685 153.106 311.164C152.816 312.044 152.536 312.964 152.276 313.904C152.086 314.554 151.916 315.224 151.746 315.904H86.9658C87.0562 315.244 87.1357 314.574 87.2261 313.904C90.5361 287.754 93.2158 261.214 93.646 256.884C93.686 256.474 93.7061 256.264 93.7061 256.264C132.526 235.804 160.856 262.564 160.856 262.564C160.856 262.564 160.896 262.754 160.956 263.124C161.576 266.864 164.736 288.704 156.136 304.004Z" fill="#0E6C8C"/>
<path d="M153.106 311.164L148.786 301.904L149.836 265.184L160.956 263.124L161.346 263.054C167.094 266.395 171.542 271.583 173.966 277.774C176.126 283.174 180.236 299.414 183.706 313.904C183.866 314.574 184.026 315.244 184.186 315.904H155.316L154.386 313.904L153.106 311.164Z" fill="#0E6C8C"/>
<path d="M192.617 150.904H50.5967C47.5504 150.907 44.63 152.119 42.476 154.273C40.3219 156.427 39.1102 159.348 39.1064 162.394V304.414C39.1102 307.46 40.3219 310.38 42.476 312.534C44.63 314.688 47.5504 315.9 50.5967 315.904H192.617C195.663 315.902 198.585 314.691 200.739 312.536C202.893 310.382 204.105 307.461 204.106 304.414V162.394C204.105 159.347 202.893 156.426 200.739 154.271C198.585 152.117 195.663 150.906 192.617 150.904ZM202.106 304.414C202.104 306.93 201.104 309.343 199.325 311.122C197.545 312.901 195.133 313.902 192.617 313.904H50.5967C48.0809 313.9 45.6693 312.899 43.8904 311.12C42.1114 309.341 41.1103 306.93 41.1064 304.414V162.394C41.1103 159.878 42.1114 157.466 43.8904 155.688C45.6693 153.909 48.0809 152.908 50.5967 152.904H192.617C195.133 152.906 197.545 153.906 199.325 155.686C201.104 157.465 202.104 159.878 202.106 162.394V304.414ZM92.4863 313.904L92.2763 315.904H151.747C151.916 315.224 152.086 314.554 152.276 313.904H92.4863Z" fill="#3F3D56"/>
<path d="M383.226 150.904H241.206C238.16 150.907 235.239 152.119 233.085 154.273C230.931 156.427 229.72 159.348 229.716 162.394V304.414C229.72 307.46 230.931 310.38 233.085 312.534C235.239 314.688 238.16 315.9 241.206 315.904H383.226C386.273 315.902 389.194 314.691 391.348 312.536C393.503 310.382 394.714 307.461 394.716 304.414V162.394C394.714 159.347 393.503 156.426 391.348 154.271C389.194 152.117 386.273 150.906 383.226 150.904V150.904ZM392.716 304.414C392.714 306.93 391.713 309.343 389.934 311.122C388.155 312.901 385.742 313.902 383.226 313.904H241.206C238.69 313.9 236.279 312.899 234.5 311.12C232.721 309.341 231.72 306.93 231.716 304.414V162.394C231.72 159.878 232.721 157.466 234.5 155.688C236.279 153.909 238.69 152.908 241.206 152.904H383.226C385.742 152.906 388.155 153.906 389.934 155.686C391.713 157.465 392.714 159.878 392.716 162.394V304.414ZM267.436 313.904C267.556 314.334 267.686 314.764 267.826 315.194L267.576 315.904H317.236C317.286 315.234 317.326 314.564 317.376 313.904H267.436Z" fill="#3F3D56"/>
<path d="M573.846 150.904H431.826C428.779 150.906 425.858 152.117 423.703 154.271C421.549 156.426 420.338 159.347 420.336 162.394V304.414C420.338 307.461 421.549 310.382 423.703 312.536C425.858 314.691 428.779 315.902 431.826 315.904H573.846C576.892 315.9 579.813 314.688 581.967 312.534C584.121 310.38 585.332 307.46 585.336 304.414V162.394C585.332 159.348 584.121 156.427 581.967 154.273C579.813 152.119 576.892 150.908 573.846 150.904ZM583.336 304.414C583.332 306.93 582.331 309.341 580.552 311.12C578.773 312.899 576.362 313.9 573.846 313.904H431.826C429.31 313.902 426.897 312.901 425.118 311.122C423.339 309.343 422.338 306.93 422.336 304.414V162.394C422.338 159.878 423.339 157.465 425.118 155.686C426.897 153.906 429.31 152.906 431.826 152.904H573.846C576.362 152.908 578.773 153.909 580.552 155.688C582.331 157.466 583.332 159.878 583.336 162.394V304.414ZM506.416 313.904C506.366 314.564 506.316 315.234 506.266 315.904H549.356C549.436 315.244 549.526 314.574 549.606 313.904H506.416Z" fill="#3F3D56"/>
<path d="M477.221 373.904H147.221C145.099 373.904 143.064 373.061 141.564 371.561C140.064 370.06 139.221 368.026 139.221 365.904C139.221 363.782 140.064 361.747 141.564 360.247C143.064 358.747 145.099 357.904 147.221 357.904H477.221C479.342 357.904 481.377 358.747 482.878 360.247C484.378 361.747 485.221 363.782 485.221 365.904C485.221 368.026 484.378 370.06 482.878 371.561C481.377 373.061 479.342 373.904 477.221 373.904Z" fill="#CCCCCC"/>
<path d="M384.721 108.904H239.721C237.599 108.904 235.564 108.061 234.064 106.561C232.564 105.06 231.721 103.026 231.721 100.904C231.721 98.7821 232.564 96.7473 234.064 95.247C235.564 93.7467 237.599 92.9038 239.721 92.9038H384.721C386.842 92.9038 388.877 93.7467 390.378 95.247C391.878 96.7473 392.721 98.7821 392.721 100.904C392.721 103.026 391.878 105.06 390.378 106.561C388.877 108.061 386.842 108.904 384.721 108.904Z" fill="#0E6C8C"/>
<path d="M136.091 237.378C136.923 238.198 138.022 238.691 139.188 238.765C140.354 238.84 141.507 238.492 142.437 237.784C148.225 233.493 153.307 228.152 156.314 221.638C159.761 214.173 160.145 205.012 155.99 197.917C152.478 191.92 146.276 188.049 140.094 184.871C137.694 183.517 135.109 182.52 132.42 181.914C129.703 181.314 126.86 181.773 124.469 183.197C123.299 183.93 122.378 184.999 121.825 186.264C121.272 187.529 121.113 188.931 121.368 190.287C118.399 186.9 114.596 184.347 110.336 182.882C107.654 181.832 104.717 181.619 101.911 182.271C97.9885 183.384 95.1249 186.869 93.5586 190.633C92.2919 193.497 91.8545 196.658 92.2961 199.758C92.5285 201.301 93.0822 202.777 93.9211 204.092C94.7601 205.407 95.8658 206.532 97.1667 207.393C100.41 209.399 104.547 209.255 108.272 208.435C111.996 207.615 115.602 206.189 119.398 205.829C123.195 205.468 127.423 206.415 129.733 209.449C131.36 211.585 131.778 214.377 132.143 217.038L134.043 230.877C134.199 232.879 134.71 234.837 135.553 236.66C135.699 236.922 135.88 237.164 136.091 237.378Z" fill="#2F2E41"/>
</svg>
